# xmcd CD database file
#
# Track frame offsets:
#	150
#	12994
#	25117
#	40510
#	58644
#	71298
#	97718
#	118447
#	130674
#	161258
#
# Disc length: 2794 seconds
#
# Revision: 0
# Processed by: cddbd v1.5.2PL0 Copyright (c) Steve Scherf et al.
# Submitted via: CDex 1.51
#
DISCID=700ae80a
DTITLE=Faul Bradley - Dirty Blues and The Last Train Home
DYEAR=2001
DGENRE=Blues
TTITLE0=You Will Be My No. 1
TTITLE1=4 A.M.
TTITLE2=Achin' Heart Blues
TTITLE3=The Dirty Blues (Part 1)
TTITLE4=Struttin' From the Preacher At The Door
TTITLE5=Chip Away The Stone
TTITLE6=Cherry Lane
TTITLE7=Orphan Clouds
TTITLE8=Dust
TTITLE9=The Last Train Home
EXTD=YEAR: 2001
EXTT0=
EXTT1=
EXTT2=
EXTT3=
EXTT4=
EXTT5=
EXTT6=
EXTT7=
EXTT8=
EXTT9=
PLAYORDER=
